<?xml version="1.0" encoding="UTF-8"?>
<svg version="1.1" xmlns="http://www.w3.org/2000/svg" width="1024" height="1024">
<path d="M0 0 C337.92 0 675.84 0 1024 0 C1024 337.92 1024 675.84 1024 1024 C686.08 1024 348.16 1024 0 1024 C0 686.08 0 348.16 0 0 Z " fill="#FAFAFA" transform="translate(0,0)"/>
<path d="M0 0 C2.93989099 0.75658502 4.82943048 2.15270704 7.30029297 3.91040039 C13.2556565 7.81239542 18.99232836 9.58564784 25.87060547 11.21899414 C28.15581329 11.80082287 30.44096928 12.38285523 32.72607422 12.96508789 C34.91996079 13.50855682 37.11396502 14.05155108 39.30810547 14.59399414 C42.77281016 15.46705985 46.22958357 16.36533493 49.68310547 17.28149414 C50.40699463 17.4595459 51.13088379 17.63759766 51.87670898 17.82104492 C56.04171727 18.92492585 58.67562315 20.12633342 61.30810547 23.59399414 C61.55810547 26.34399414 61.55810547 26.34399414 61.30810547 28.59399414 C62.58685547 28.82086914 63.86560547 29.04774414 65.18310547 29.28149414 C69.96477159 30.29967226 73.76680064 32.27857754 77.94873047 34.76586914 C80.3197522 35.84753117 80.3197522 35.84753117 82.85107422 34.91040039 C85.17384265 33.66592828 87.24435559 32.33418914 89.37060547 30.78149414 C99.40083856 23.92666147 109.19046574 21.41527276 121.12060547 21.40649414 C121.98492188 21.39424805 122.84923828 21.38200195 123.73974609 21.36938477 C138.12683022 21.33681024 151.58436722 27.05999597 162.30810547 36.59399414 C164.75359475 39.30571087 167.02648008 42.07573721 169.23779297 44.98071289 C173.17358585 49.98386555 173.17358585 49.98386555 178.30810547 53.59399414 C180.66513751 53.60794218 183.02263449 53.55867969 185.37841797 53.48071289 C216.1450939 52.69580636 216.1450939 52.69580636 228.30810547 59.59399414 C229.71382812 60.29588867 229.71382812 60.29588867 231.14794922 61.01196289 C245.28223163 68.59984081 253.04877607 81.59474207 257.90966797 96.42993164 C258.48955676 99.57952372 258.40021933 102.64569706 258.37060547 105.84399414 C258.36158203 107.10727539 258.35255859 108.37055664 258.34326172 109.67211914 C258.32585937 111.11844727 258.32585937 111.11844727 258.30810547 112.59399414 C259.46568359 112.58239258 260.62326172 112.57079102 261.81591797 112.55883789 C263.35497885 112.54945337 264.89404148 112.54035388 266.43310547 112.53149414 C267.19365234 112.52311523 267.95419922 112.51473633 268.73779297 112.50610352 C273.04706987 112.48752905 277.06327021 112.73282149 281.30810547 113.59399414 C281.42927734 113.00231445 281.55044922 112.41063477 281.67529297 111.80102539 C283.92342351 101.20022521 283.92342351 101.20022521 286.87060547 97.78149414 C291.92405863 95.31955542 297.41746588 96.07395413 302.62060547 97.84399414 C308.41340433 100.38124004 308.41340433 100.38124004 310.30810547 103.59399414 C310.63068866 109.55103039 309.02431449 115.00386889 307.00732422 120.54321289 C306.10601323 123.18672279 305.66260575 125.82889195 305.30810547 128.59399414 C305.87658203 128.8118457 306.44505859 129.02969727 307.03076172 129.25415039 C314.99841027 133.9418064 320.27359984 145.22827863 323.30810547 153.59399414 C323.62650391 154.46926758 323.94490234 155.34454102 324.27294922 156.24633789 C327.18812031 165.82475719 326.57223 175.69421527 326.30810547 185.59399414 C326.88310791 185.5744165 327.45811035 185.55483887 328.05053711 185.53466797 C342.69091469 185.2478398 356.53623967 191.93242915 367.30810547 201.59399414 C377.28662438 211.26125649 385.28241902 224.74184328 385.76904297 238.89086914 C385.76120135 241.04208725 385.73239701 243.19332653 385.68310547 245.34399414 C385.68181641 246.4280957 385.68052734 247.51219727 385.67919922 248.62915039 C385.61614274 254.36728999 385.0880062 259.1546175 383.30810547 264.59399414 C382.85715613 268.48220128 382.85715613 268.48220128 384.84716797 270.26977539 C385.53552734 270.80989258 386.22388672 271.35000977 386.93310547 271.90649414 C396.00033223 279.45452065 401.53232137 288.00757392 404.30810547 299.59399414 C404.87635541 307.4742837 404.76996558 315.05454756 402.30810547 322.59399414 C404.61810547 322.59399414 406.92810547 322.59399414 409.30810547 322.59399414 C412.02046079 306.3198622 410.1561342 293.16890464 402.30810547 278.59399414 C409.56863706 271.16517208 416.7543348 269.46989926 426.99560547 269.15649414 C434.10780765 269.33519269 437.83568052 270.01842785 442.88623047 275.21899414 C444.04947744 276.52357019 445.18720532 277.85116577 446.30419922 279.19555664 C448.66741497 282.02404488 451.13065173 284.75260241 453.62060547 287.46899414 C454.0848291 287.97672363 454.54905273 288.48445313 455.02734375 289.00756836 C459.02633301 293.35094182 463.18161669 297.51170698 467.40966797 301.63305664 C469.367468 303.655311 470.26363444 304.66203596 470.39794922 307.47680664 C470.07642775 312.20894314 469.23408904 315.14913297 466.24951172 318.89868164 C465.70109619 319.59719238 465.15268066 320.29570313 464.58764648 321.01538086 C464.16539795 321.53632324 463.74314941 322.05726563 463.30810547 322.59399414 C463.99437012 322.58352051 464.68063477 322.57304688 465.38769531 322.56225586 C468.48612836 322.5207754 471.58450308 322.49469345 474.68310547 322.46899414 C475.76333984 322.45223633 476.84357422 322.43547852 477.95654297 322.41821289 C478.98779297 322.41176758 480.01904297 322.40532227 481.08154297 322.39868164 C482.03464355 322.38820801 482.98774414 322.37773438 483.96972656 322.36694336 C486.30810547 322.59399414 486.30810547 322.59399414 488.30810547 324.59399414 C488.62060547 327.09399414 488.62060547 327.09399414 488.30810547 329.59399414 C485.14383715 331.70350635 484.41168314 331.84350154 480.80035877 331.8400898 C479.8712858 331.84407189 478.94221283 331.84805399 477.98498613 331.85215676 C476.96262335 331.84633108 475.94026058 331.84050539 474.88691711 331.83450317 C473.25986014 331.83706645 473.25986014 331.83706645 471.59993333 331.83968151 C467.94700855 331.84298893 464.29426542 331.83195202 460.64135742 331.82104492 C458.03011072 331.82048108 455.4188637 331.82079684 452.80761719 331.82192993 C447.17639073 331.82297956 441.54521056 331.81669487 435.91399574 331.80545425 C427.77217226 331.7892127 419.6303712 331.78399263 411.48853328 331.78147827 C398.27953358 331.77709905 385.07055856 331.7637838 371.86157227 331.74487305 C359.02889123 331.72652011 346.1962169 331.71236074 333.36352539 331.70385742 C332.57275973 331.70333197 331.78199408 331.70280653 330.96726582 331.70226516 C327.00029889 331.69965512 323.0333319 331.69712769 319.06636488 331.69464135 C286.14692711 331.67390179 253.22751959 331.63867009 220.30810547 331.59399414 C220.08024089 329.60831706 219.8523763 327.62263997 219.62451172 325.63696289 C219.33639812 323.40003021 219.33639812 323.40003021 218.30810547 320.59399414 C215.98794836 319.48384447 215.98794836 319.48384447 213.30810547 318.59399414 C211.78200708 317.86280056 210.26382957 317.1148775 208.75341797 316.35180664 C191.16922829 307.60119178 170.31707564 299.01590536 150.37841797 305.69946289 C145.02355698 308.18994063 141.36884164 311.14488145 137.87451172 315.85961914 C135.27139357 318.74187465 131.95644414 320.38691493 128.57763672 322.23461914 C126.40862892 323.53378388 124.87942535 324.62116981 123.30810547 326.59399414 C122.90763103 328.91674591 122.56839507 331.25138771 122.30810547 333.59399414 C120.43259135 335.46950826 117.2339701 334.72457307 114.73779297 334.72680664 C114.0214418 334.72812592 113.30509064 334.72944519 112.56703186 334.73080444 C110.10568403 334.7327747 107.64444259 334.7262218 105.18310547 334.71899414 C104.32927277 334.71810791 103.47544006 334.71722168 102.59573364 334.71630859 C71.49876622 334.67948105 40.40059113 334.08185167 9.30810547 333.59399414 C9.10903595 332.97154312 8.90996643 332.3490921 8.7048645 331.70777893 C8.30761673 330.48658607 8.30761673 330.48658607 7.90234375 329.24072266 C7.64139923 328.43264664 7.38045471 327.62457062 7.11160278 326.79200745 C4.28482573 319.05919557 -4.79816031 311.79053969 -11.52783203 307.39477539 C-14.57243107 306.26816383 -17.39071343 306.26864155 -20.62939453 306.15649414 C-25.77108659 305.92121232 -30.49129816 305.30560652 -35.50439453 304.03149414 C-44.74068137 301.761942 -51.07810412 301.54922073 -59.55908203 306.21508789 C-61.93455734 307.75088054 -63.81459106 309.48202774 -65.69189453 311.59399414 C-66.35189453 311.59399414 -67.01189453 311.59399414 -67.69189453 311.59399414 C-67.94841797 312.29266602 -68.20494141 312.99133789 -68.46923828 313.71118164 C-69.8216909 316.90003158 -71.47220973 319.74992635 -73.25439453 322.71899414 C-75.04502514 325.7046194 -76.59072425 328.29048331 -77.69189453 331.59399414 C-105.41181466 331.664001 -133.13172158 331.71694145 -160.85171223 331.74943066 C-173.7218909 331.7649153 -186.59201473 331.78603532 -199.4621582 331.8203125 C-210.67664236 331.85016597 -221.89108681 331.86955751 -233.1056096 331.87625962 C-239.04644732 331.88017876 -244.98717141 331.88942237 -250.92797279 331.91118431 C-256.51504571 331.93148546 -262.10195773 331.93784087 -267.68906403 331.93331718 C-269.74382335 331.93414525 -271.79858783 331.94014865 -273.85331535 331.95161057 C-276.65068624 331.96645499 -279.44744327 331.96297731 -282.24482727 331.95475769 C-283.06486073 331.96349621 -283.8848942 331.97223474 -284.72977716 331.98123807 C-290.17477817 331.93775338 -290.17477817 331.93775338 -292.73546124 330.23550892 C-293.69189453 328.59399414 -293.69189453 328.59399414 -293.44189453 325.96899414 C-292.69189453 323.59399414 -292.69189453 323.59399414 -291.69189453 322.59399414 C-289.54802796 322.43540572 -287.39922615 322.34270116 -285.25048828 322.27758789 C-283.9453125 322.23569336 -282.64013672 322.19379883 -281.29541016 322.15063477 C-279.90674124 322.11081806 -278.51806931 322.07110589 -277.12939453 322.03149414 C-275.7368027 321.98831425 -274.34422425 321.94470014 -272.95166016 321.90063477 C-269.53184652 321.79413538 -266.1119569 321.69212491 -262.69189453 321.59399414 C-263.19720703 320.94172852 -263.70251953 320.28946289 -264.22314453 319.61743164 C-264.87283203 318.74344727 -265.52251953 317.86946289 -266.19189453 316.96899414 C-267.16642578 315.6812207 -267.16642578 315.6812207 -268.16064453 314.36743164 C-269.95196579 311.12294671 -270.10308023 309.24734149 -269.69189453 305.59399414 C-268.06689453 302.68383789 -268.06689453 302.68383789 -265.69189453 299.53149414 C-265.2576416 298.94787109 -264.82338867 298.36424805 -264.37597656 297.76293945 C-262.82951413 295.69498935 -261.26065763 293.64507323 -259.69189453 291.59399414 C-258.37605459 289.85105979 -257.06099272 288.10753784 -255.74658203 286.36352539 C-251.75536927 281.08589253 -247.74779136 275.82212703 -243.69189453 270.59399414 C-242.98838867 269.68327148 -242.28488281 268.77254883 -241.56005859 267.83422852 C-240.86364258 266.94541992 -240.16722656 266.05661133 -239.44970703 265.14086914 C-238.82467285 264.34003906 -238.19963867 263.53920898 -237.55566406 262.71411133 C-234.95937044 259.7607168 -232.90509102 257.84940393 -229.02001953 257.03149414 C-223.97168047 257.88473455 -220.5424312 260.63796282 -216.44189453 263.59399414 C-215.60231201 264.18398193 -214.76272949 264.77396973 -213.89770508 265.38183594 C-207.98530801 269.56933079 -202.21185278 273.89706308 -196.69189453 278.59399414 C-197.69189453 281.59399414 -197.69189453 281.59399414 -200.37939453 283.65649414 C-204.70864704 287.08860035 -207.17876926 291.74941531 -209.69189453 296.59399414 C-210.07603516 297.30942383 -210.46017578 298.02485352 -210.85595703 298.76196289 C-212.14165968 303.11773121 -211.8998206 307.39340207 -211.81689453 311.90649414 C-211.80787109 312.8378418 -211.79884766 313.76918945 -211.78955078 314.72875977 C-211.76607716 317.01743774 -211.73324182 319.30558086 -211.69189453 321.59399414 C-209.38189453 321.92399414 -207.07189453 322.25399414 -204.69189453 322.59399414 C-205.18689453 321.10899414 -205.18689453 321.10899414 -205.69189453 319.59399414 C-206.42365513 309.79885582 -206.93415707 300.75475021 -200.69189453 292.59399414 C-197.88155355 289.36694743 -195.01566477 286.29741433 -191.69189453 283.59399414 C-191.03189453 283.59399414 -190.37189453 283.59399414 -189.69189453 283.59399414 C-189.90845703 282.48217773 -189.90845703 282.48217773 -190.12939453 281.34790039 C-192.52892016 267.73392512 -193.51939589 254.46912997 -187.69189453 241.59399414 C-187.27939453 240.67231445 -186.86689453 239.75063477 -186.44189453 238.80102539 C-180.65092355 227.13682531 -172.02345558 218.82124841 -160.69189453 212.59399414 C-159.95712891 212.18407227 -159.22236328 211.77415039 -158.46533203 211.35180664 C-150.62955826 207.20701511 -142.36985719 205.93344979 -133.69189453 204.59399414 C-133.41474609 203.60657227 -133.13759766 202.61915039 -132.85205078 201.60180664 C-132.48627021 200.30750617 -132.12037905 199.01323696 -131.75439453 197.71899414 C-131.57199219 197.06801758 -131.38958984 196.41704102 -131.20166016 195.74633789 C-129.80517578 190.82055664 -129.80517578 190.82055664 -128.69189453 188.59399414 C-128.58660937 187.07959128 -128.53663169 185.56113252 -128.51611328 184.04321289 C-128.09669046 165.48131439 -125.15807163 150.16473194 -111.87939453 136.21899414 C-103.43630881 128.28452804 -94.82193779 124.53485923 -83.69189453 121.59399414 C-83.03447266 121.39547852 -82.37705078 121.19696289 -81.69970703 120.99243164 C-78.92695609 120.44219702 -76.26506944 120.50080746 -73.44189453 120.53149414 C-72.36423828 120.54051758 -71.28658203 120.54954102 -70.17626953 120.55883789 C-69.35642578 120.57043945 -68.53658203 120.58204102 -67.69189453 120.59399414 C-67.57974609 119.39516602 -67.57974609 119.39516602 -67.46533203 118.17211914 C-65.9600494 105.59858184 -61.23743158 95.12404853 -51.69189453 86.59399414 C-42.3891368 79.83912547 -34.07564071 77.10031062 -22.69189453 77.40649414 C-21.72638672 77.4200293 -20.76087891 77.43356445 -19.76611328 77.44750977 C-17.40744028 77.48253956 -15.04997682 77.5316533 -12.69189453 77.59399414 C-12.56129639 76.92432617 -12.43069824 76.2546582 -12.29614258 75.56469727 C-12.12123291 74.67717773 -11.94632324 73.7896582 -11.76611328 72.87524414 C-11.59426514 71.99932617 -11.42241699 71.1234082 -11.24536133 70.22094727 C-9.43722329 61.63887172 -6.04202745 55.54328766 -0.69189453 48.59399414 C-0.19818359 47.9455957 0.29552734 47.29719727 0.80419922 46.62915039 C1.91100053 45.23333272 3.10126344 43.90427977 4.30810547 42.59399414 C4.96810547 42.59399414 5.62810547 42.59399414 6.30810547 42.59399414 C6.30810547 41.93399414 6.30810547 41.27399414 6.30810547 40.59399414 C5.45732422 40.55661133 4.60654297 40.51922852 3.72998047 40.48071289 C-3.99768323 40.06144603 -11.64843398 39.33186218 -19.31689453 38.28149414 C-20.16928711 38.17603271 -21.02167969 38.07057129 -21.89990234 37.96191406 C-26.86211633 37.24224506 -30.11865163 36.38528926 -33.69189453 32.59399414 C-34.81689453 29.21899414 -34.81689453 29.21899414 -34.69189453 25.59399414 C-33.09617659 22.46165893 -32.51958909 21.41138305 -29.69189453 19.59399414 C-22.25621401 17.2779625 -14.41028595 17.32050783 -6.69189453 17.59399414 C-7.37251953 16.74836914 -8.05314453 15.90274414 -8.75439453 15.03149414 C-10.69189453 11.59399414 -10.69189453 11.59399414 -10.69189453 7.96899414 C-8.95137205 2.09473077 -6.38026582 -0.28016989 0 0 Z " fill="#A93539" transform="translate(411.69189453125,371.406005859375)"/>
<path d="M0 0 C1.61359862 0.00138269 1.61359862 0.00138269 3.25979519 0.00279331 C4.48963634 0.00141865 5.7194775 0.00004398 6.98658657 -0.00137234 C8.36195302 0.00216727 9.73731923 0.00580209 11.1126852 0.00952244 C12.55123804 0.0098043 13.98979102 0.00964659 15.42834377 0.00907993 C19.34552749 0.00879194 23.26268086 0.01468899 27.17985749 0.02165389 C31.26915443 0.02788709 35.358452 0.0284912 39.44775295 0.0296793 C47.19674004 0.03279272 54.94571309 0.04100624 62.69469398 0.05102879 C71.51437815 0.0621896 80.33406298 0.0677003 89.15375245 0.07272422 C107.3014499 0.08318885 125.44912811 0.10153446 143.59681606 0.12304783 C143.59681606 9.69304783 143.59681606 19.26304783 143.59681606 29.12304783 C144.25681606 29.45304783 144.91681606 29.78304783 145.59681606 30.12304783 C145.01673794 30.47496189 144.43665981 30.82687595 143.83900356 31.18945408 C132.01413021 38.66293014 125.89439042 48.69969918 122.72181606 62.37304783 C122.33102876 64.28655806 121.94999671 66.20224083 121.59681606 68.12304783 C120.59263638 68.22101658 119.58845669 68.31898533 118.55384731 68.41992283 C102.01348893 70.16690031 87.30455125 74.17949566 75.51087856 86.70117283 C65.32931187 99.5839715 62.52796327 111.96585345 62.07728481 128.0507822 C61.81716053 135.08858918 60.58338493 140.72164738 57.59681606 147.12304783 C56.91095716 149.11654777 56.24007232 151.11539601 55.59681606 153.12304783 C54.54623013 153.29320408 53.49564419 153.46336033 52.41322231 153.63867283 C44.66966063 154.95018667 37.53221862 156.2627766 30.59681606 160.12304783 C29.78986294 160.55488377 28.98290981 160.9867197 28.15150356 161.43164158 C13.49937928 169.69866583 4.81714971 181.55248261 -0.49693394 197.38086033 C-1.47244055 201.40902989 -1.66250524 205.1362785 -1.59068394 209.24804783 C-1.59003941 209.98651951 -1.58939487 210.72499119 -1.58873081 211.4858408 C-1.55240595 216.16064844 -1.07341404 220.61541734 -0.40318394 225.24804783 C0.07072333 230.48050343 0.07072333 230.48050343 -1.90709019 233.16211033 C-3.96568394 234.87304783 -3.96568394 234.87304783 -6.19224644 236.43554783 C-10.60770121 239.80564759 -13.65994991 244.89334576 -15.40318394 250.12304783 C-15.4842508 251.67726512 -15.51075292 253.2347181 -15.50084019 254.79101658 C-15.49761753 255.68369236 -15.49439487 256.57636814 -15.49107456 257.4960947 C-15.48269566 258.42486423 -15.47431675 259.35363377 -15.46568394 260.31054783 C-15.46117222 261.25091892 -15.4566605 262.19129002 -15.45201206 263.1601572 C-15.4402302 265.48118495 -15.42377952 267.80208427 -15.40318394 270.12304783 C-17.73613169 270.16546506 -20.07020961 270.1639772 -22.40318394 270.12304783 C-25.02457251 267.50165926 -23.83581987 260.56294509 -23.8585062 257.05371189 C-23.66182414 246.0434307 -19.27234141 238.54827994 -11.91880894 230.54882908 C-10.40318394 229.12304783 -10.40318394 229.12304783 -8.40318394 228.12304783 C-9.51864119 224.77667608 -10.077438 224.37051141 -12.86802769 222.45117283 C-13.58112095 221.9545615 -14.29421421 221.45795017 -15.02891636 220.94629002 C-16.17324131 220.16753513 -16.17324131 220.16753513 -17.34068394 219.37304783 C-18.89816288 218.30040303 -20.45545537 217.22748747 -22.01255894 216.15429783 C-22.76859409 215.6360947 -23.52462925 215.11789158 -24.30357456 214.58398533 C-27.68349399 212.23219023 -30.96172175 209.73989265 -34.22740269 207.23242283 C-37.12895931 205.7529936 -39.18839175 205.77967884 -42.40318394 206.12304783 C-45.48775931 208.3439421 -47.95714134 210.59337224 -50.40318394 213.49804783 C-51.39318394 214.30242283 -51.39318394 214.30242283 -52.40318394 215.12304783 C-54.41033136 214.83587135 -56.40906217 214.48991222 -58.40318394 214.12304783 C-61.52433252 213.86096665 -64.64996071 213.71271818 -67.77818394 213.56054783 C-68.60962925 213.51736423 -69.44107456 213.47418064 -70.29771519 213.42968845 C-72.33271621 213.32442978 -74.36793097 213.2233171 -76.40318394 213.12304783 C-76.42790753 208.62069187 -76.44605513 204.11837547 -76.45811558 199.61596775 C-76.46314354 198.08438523 -76.46996678 196.5528075 -76.47862339 195.02124119 C-76.49075623 192.8194876 -76.49642761 190.6177975 -76.50084019 188.41601658 C-76.50858212 187.38930096 -76.50858212 187.38930096 -76.51648045 186.34184361 C-76.51683754 183.31398541 -76.36935013 181.0215464 -75.40318394 178.12304783 C-75.73318394 177.46304783 -76.06318394 176.80304783 -76.40318394 176.12304783 C-76.31616354 174.41071095 -76.16221231 172.70129377 -75.96568394 170.99804783 C-75.863848 170.0879697 -75.76201206 169.17789158 -75.65709019 168.24023533 C-75.57330112 167.54156345 -75.48951206 166.84289158 -75.40318394 166.12304783 C-76.35193394 166.16429783 -77.30068394 166.20554783 -78.27818394 166.24804783 C-81.40318394 166.12304783 -81.40318394 166.12304783 -83.40318394 164.12304783 C-83.21007276 161.22638013 -82.37554023 160.09094546 -80.46568394 157.87304783 C-78.40318394 156.12304783 -78.40318394 156.12304783 -76.40318394 156.12304783 C-76.42638706 155.20781345 -76.44959019 154.29257908 -76.47349644 153.34961033 C-76.50056675 151.56683689 -76.50056675 151.56683689 -76.52818394 149.74804783 C-76.55138706 148.56468845 -76.57459019 147.38132908 -76.59849644 146.16211033 C-76.40318394 143.12304783 -76.40318394 143.12304783 -74.40318394 141.12304783 C-58.48936381 139.08805862 -40.95022681 141.26771946 -24.92271519 141.63476658 C-22.82624067 141.6821651 -20.72976444 141.7294882 -18.63328648 141.77673435 C-13.55656558 141.89130447 -8.47986872 142.00688902 -3.40318394 142.12304783 C-3.40410573 141.39729337 -3.40502752 140.67153891 -3.40597725 139.92379189 C-3.42803157 122.29003321 -3.44459504 104.65627803 -3.45499611 87.02250862 C-3.46015927 78.49506289 -3.46720235 69.96762634 -3.47862339 61.4401865 C-3.48856962 54.01038527 -3.49503722 46.5805907 -3.49727243 39.150783 C-3.49857964 35.21431463 -3.50166615 31.2778653 -3.50891399 27.34140301 C-3.51567325 23.64051455 -3.51780109 19.93965308 -3.51629162 16.23875904 C-3.51670032 14.22433981 -3.52209601 12.20992356 -3.5276041 10.19551182 C-3.52622944 9.00774143 -3.52485477 7.81997105 -3.52343845 6.59620762 C-3.52436025 5.55734693 -3.52528204 4.51848623 -3.52623177 3.44814491 C-3.35759061 0.26152172 -3.19138839 0.16340547 0 0 Z " fill="#F7F7F7" transform="translate(222.40318393707275,423.8769521713257)"/>
<path d="M0 0 C0.78600586 0.00410889 1.57201172 0.00821777 2.38183594 0.01245117 C3.30851074 0.0138208 4.23518555 0.01519043 5.18994141 0.01660156 C6.23811035 0.02941162 7.2862793 0.04222168 8.36621094 0.05541992 C10.07188232 0.06400024 10.07188232 0.06400024 11.81201172 0.07275391 C19.20010877 0.13072043 26.58253651 0.30004731 33.96777344 0.50854492 C37.64219353 0.60980299 41.31667072 0.70861968 44.99121094 0.80541992 C45.93357605 0.83043579 46.87594116 0.85545166 47.84686279 0.88122559 C75.27124144 1.57551365 102.69619411 0.86553205 130.11621094 0.24291992 C131.27578301 3.72163613 130.89077744 4.58511637 129.67871094 7.93041992 C129.39125 8.73866211 129.10378906 9.5469043 128.80761719 10.37963867 C128.57945312 10.99452148 128.35128906 11.6094043 128.11621094 12.24291992 C127.065625 12.41307617 126.01503906 12.58323242 124.93261719 12.75854492 C117.18905551 14.07005877 110.05161349 15.38264869 103.11621094 19.24291992 C102.30925781 19.67475586 101.50230469 20.1065918 100.67089844 20.55151367 C86.01877416 28.81853792 77.33654458 40.6723547 72.02246094 56.50073242 C71.04695432 60.52890198 70.85688964 64.25615059 70.92871094 68.36791992 C70.92935547 69.1063916 70.93 69.84486328 70.93066406 70.60571289 C70.96698892 75.28052053 71.44598083 79.73528943 72.11621094 84.36791992 C72.59011821 89.60037552 72.59011821 89.60037552 70.61230469 92.28198242 C68.55371094 93.99291992 68.55371094 93.99291992 66.32714844 95.55541992 C61.91169366 98.92551968 58.85944496 104.01321785 57.11621094 109.24291992 C57.03514408 110.79713721 57.00864196 112.35459019 57.01855469 113.91088867 C57.02177734 114.80356445 57.025 115.69624023 57.02832031 116.6159668 C57.03669922 117.54473633 57.04507813 118.47350586 57.05371094 119.43041992 C57.05822266 120.37079102 57.06273437 121.31116211 57.06738281 122.2800293 C57.07916468 124.60105705 57.09561536 126.92195637 57.11621094 129.24291992 C54.78326318 129.28533715 52.44918527 129.2838493 50.11621094 129.24291992 C47.49482236 126.62153135 48.683575 119.68281719 48.66088867 116.17358398 C48.85757073 105.1633028 53.24705347 97.66815204 60.60058594 89.66870117 C62.11621094 88.24291992 62.11621094 88.24291992 64.11621094 87.24291992 C63.00075369 83.89654817 62.44195687 83.4903835 59.65136719 81.57104492 C58.93827393 81.07443359 58.22518066 80.57782227 57.49047852 80.06616211 C56.72759521 79.54699219 55.96471191 79.02782227 55.17871094 78.49291992 C53.621232 77.42027513 52.0639395 76.34735956 50.50683594 75.27416992 C49.75080078 74.7559668 48.99476563 74.23776367 48.21582031 73.70385742 C44.83590089 71.35206232 41.55767313 68.85976475 38.29199219 66.35229492 C35.39043557 64.87286569 33.33100312 64.89955093 30.11621094 65.24291992 C27.03163556 67.46381419 24.56225354 69.71324433 22.11621094 72.61791992 C21.45621094 73.15416992 20.79621094 73.69041992 20.11621094 74.24291992 C18.10906351 73.95574344 16.11033271 73.60978431 14.11621094 73.24291992 C10.99506236 72.98083874 7.86943416 72.83259027 4.74121094 72.68041992 C3.90976563 72.63723633 3.07832031 72.59405273 2.22167969 72.54956055 C0.18667866 72.44430187 -1.84853609 72.3431892 -3.88378906 72.24291992 C-3.90851265 67.74056397 -3.92666025 63.23824756 -3.9387207 58.73583984 C-3.94374867 57.20425732 -3.95057191 55.67267959 -3.95922852 54.14111328 C-3.97136136 51.9393597 -3.97703274 49.73766959 -3.98144531 47.53588867 C-3.9866066 46.85141159 -3.99176788 46.16693451 -3.99708557 45.4617157 C-3.99744267 42.43385751 -3.84995525 40.1414185 -2.88378906 37.24291992 C-3.21378906 36.58291992 -3.54378906 35.92291992 -3.88378906 35.24291992 C-3.79676866 33.53058304 -3.64281744 31.82116586 -3.44628906 30.11791992 C-3.34445313 29.2078418 -3.24261719 28.29776367 -3.13769531 27.36010742 C-3.01201172 26.31209961 -3.01201172 26.31209961 -2.88378906 25.24291992 C-3.83253906 25.28416992 -4.78128906 25.32541992 -5.75878906 25.36791992 C-8.88378906 25.24291992 -8.88378906 25.24291992 -10.88378906 23.24291992 C-10.69067788 20.34625223 -9.85614535 19.21081755 -7.94628906 16.99291992 C-5.88378906 15.24291992 -5.88378906 15.24291992 -3.88378906 15.24291992 C-3.90699219 14.32768555 -3.93019531 13.41245117 -3.95410156 12.46948242 C-3.98117188 10.68670898 -3.98117188 10.68670898 -4.00878906 8.86791992 C-4.03199219 7.68456055 -4.05519531 6.50120117 -4.07910156 5.28198242 C-3.86576891 1.96252643 -3.51500026 0.45326921 0 0 Z " fill="#F6F5F5" transform="translate(149.8837890625,564.757080078125)"/>
<path d="M0 0 C3.93214301 1.58939426 6.33020346 4.16342502 9.25 7.1875 C12.96173024 10.98205397 16.73662542 14.61152171 20.7734375 18.05859375 C23.73952342 20.64481252 26.61646637 23.32243305 29.5 26 C33.74455485 29.93858608 38.0189706 33.82632193 42.4140625 37.59765625 C44.00844351 39.00746606 45.51127265 40.47969358 47 42 C45.68383888 44.89059376 44.24755763 47.02562293 42.05859375 49.3203125 C41.47883789 49.93382568 40.89908203 50.54733887 40.30175781 51.17944336 C39.68655273 51.82147705 39.07134766 52.46351074 38.4375 53.125 C37.16969629 54.46140851 35.90277078 55.79865067 34.63671875 57.13671875 C33.70738525 58.11777588 33.70738525 58.11777588 32.75927734 59.11865234 C29.64411265 62.4499678 26.6556042 65.89060793 23.671875 69.33984375 C22 71 22 71 20 71 C19.68546875 70.278125 19.3709375 69.55625 19.046875 68.8125 C17.39217331 65.22399031 16.18678351 63.40591603 13 61 C5.81286876 59.62846404 -1.7525675 60.39736074 -9 61 C-9 62.98 -9 64.96 -9 67 C-8.49210937 66.84789062 -7.98421875 66.69578125 -7.4609375 66.5390625 C-1.64303377 65.26466454 4.15087883 64.97116435 10 66 C12.99175786 68.59319315 14.54289387 71.34636076 16 75 C14.63389732 78.03726958 13.06926193 80.20915026 10.76953125 82.609375 C10.13080078 83.28226563 9.49207031 83.95515625 8.83398438 84.6484375 C8.16689453 85.34195313 7.49980469 86.03546875 6.8125 86.75 C5.50514822 88.11849162 4.19915475 89.48828217 2.89453125 90.859375 C2.24436035 91.53291016 1.59418945 92.20644531 0.92431641 92.90039062 C-1.04192885 94.98676462 -1.04192885 94.98676462 -2.80322266 97.33398438 C-4.4343383 99.4285939 -5.97456857 101.28355732 -8 103 C-11.13924874 103.26643071 -12.16554643 103.0474427 -15 102 C-15.87962402 101.72849121 -16.75924805 101.45698242 -17.66552734 101.17724609 C-35.38241959 95.40607433 -49.90866203 86.26710778 -61 71 C-61.87866211 68.92456055 -61.87866211 68.92456055 -62 67 C-61.03125 65.38769531 -61.03125 65.38769531 -59.5 63.828125 C-58.94642822 63.25070557 -58.39285645 62.67328613 -57.82250977 62.07836914 C-56.92036743 61.17332642 -56.92036743 61.17332642 -56 60.25 C-54.77917321 58.98381942 -53.55911314 57.7168991 -52.33984375 56.44921875 C-51.75315918 55.8464209 -51.16647461 55.24362305 -50.56201172 54.62255859 C-48.82888751 52.82225483 -47.18070945 50.96652307 -45.5625 49.0625 C-41.06996266 43.85827358 -36.32012152 38.88790018 -31.62109375 33.87109375 C-28.35736252 30.38615119 -25.11116206 26.88554049 -21.875 23.375 C-21.39393799 22.85341309 -20.91287598 22.33182617 -20.41723633 21.79443359 C-17.85180554 19.0118121 -15.28884649 16.22692526 -12.7265625 13.44140625 C-12.18660645 12.85504395 -11.64665039 12.26868164 -11.09033203 11.66455078 C-10.06191688 10.54772413 -9.0341995 9.43025438 -8.00732422 8.31201172 C-5.39712164 5.47820629 -2.74694838 2.70159782 0 0 Z " fill="#AA3639" transform="translate(462,579)"/>
<path d="M0 0 C1.27685165 0.00222061 2.55370331 0.00444122 3.86924744 0.00672913 C4.57165054 0.0065831 5.27405365 0.00643707 5.9977417 0.00628662 C8.32985983 0.00698579 10.66189904 0.01477835 12.9940033 0.02259827 C14.60683142 0.02446243 16.21966012 0.02588634 17.83248901 0.02688599 C22.08550062 0.03071129 26.33847828 0.04054167 30.59147644 0.05158997 C35.69006397 0.06359839 40.78866282 0.06820627 45.88726044 0.07404327 C53.64031294 0.08375342 61.39329092 0.10290987 69.14634705 0.12025452 C69.14634705 23.22025452 69.14634705 46.32025452 69.14634705 70.12025452 C66.22552249 71.58066679 63.66333336 71.23954248 60.40171814 71.23377991 C59.3625248 71.23399895 59.3625248 71.23399895 58.30233765 71.23422241 C56.00812163 71.2335247 53.71398641 71.22573893 51.41978455 71.21791077 C49.83080591 71.21604608 48.2418267 71.21462242 46.65284729 71.21362305 C42.4672538 71.20980183 38.28169491 71.1999749 34.09611511 71.18891907 C29.82640552 71.17869646 25.55669034 71.1741236 21.28697205 71.16908264 C12.90674782 71.15835229 4.52655173 71.1412806 -3.85365295 71.12025452 C-3.8767784 62.01066287 -3.89456907 52.90108126 -3.90546513 43.79146671 C-3.91069351 39.56194081 -3.91779035 35.33243492 -3.92909241 31.10292053 C-3.93992287 27.02456909 -3.94593012 22.94623695 -3.9485302 18.86787224 C-3.95038416 17.30847812 -3.95400423 15.74908511 -3.95938301 14.18969917 C-3.96659557 12.0129629 -3.96764381 9.83630737 -3.96717834 7.65956116 C-3.96939896 6.41823929 -3.97161957 5.17691742 -3.97390747 3.89797974 C-3.81030464 0.11896404 -3.78910655 0.15967505 0 0 Z " fill="#F3F4F3" transform="translate(881.8536529541016,494.87974548339844)"/>
<path d="M0 0 C2.37215395 1.76610086 4.31247155 3.89280257 6.3125 6.0625 C7.45452302 7.2654071 8.59904682 8.46594506 9.74609375 9.6640625 C10.29894043 10.24317383 10.85178711 10.82228516 11.42138672 11.41894531 C13.43826175 13.43893954 15.62550776 15.18392757 17.875 16.9375 C20.94752396 19.60642971 20.94752396 19.60642971 21.375 22.8125 C19.36796458 27.46517302 17.06553527 31.95074819 14 36 C11 37 11 37 9 37.25 C5.92453188 38.40330054 5.41081258 40.05322211 4 43 C3.38981204 46.08232509 3.09305518 49.19087903 2.75 52.3125 C1.6556652 60.31632643 0.19342146 64.61491112 -6 70 C-7.68285761 71.81848265 -9.3478251 73.6535962 -11 75.5 C-28.88610325 95.02274014 -28.88610325 95.02274014 -38.17333984 104.14331055 C-39.93903285 105.93803058 -41.5942112 107.78522741 -43.23828125 109.69140625 C-46.98903505 114.00224084 -50.810648 118.23985904 -54.6875 122.4375 C-55.33783203 123.15615234 -55.98816406 123.87480469 -56.65820312 124.61523438 C-57.29048828 125.29779297 -57.92277344 125.98035156 -58.57421875 126.68359375 C-59.13713623 127.29775146 -59.70005371 127.91190918 -60.2800293 128.54467773 C-62.32590831 130.27576145 -63.31819782 130.82414412 -66 131 C-68.98925781 130.07543945 -68.98925781 130.07543945 -72.453125 128.61328125 C-73.07217712 128.35500046 -73.69122925 128.09671967 -74.32904053 127.83061218 C-76.30730838 127.00175012 -78.27840418 126.15709098 -80.25 125.3125 C-81.56078835 124.76269441 -82.87198287 124.21385609 -84.18359375 123.66601562 C-87.80528404 122.14655259 -91.40384869 120.57894145 -95 119 C-95.81218994 118.65775391 -96.62437988 118.31550781 -97.46118164 117.96289062 C-102.73845761 115.58833889 -106.14472062 112.18996972 -109.9375 107.875 C-110.53506104 107.21064941 -111.13262207 106.54629883 -111.74829102 105.86181641 C-112.94436552 104.53134246 -114.13644593 103.19726545 -115.32421875 101.859375 C-116.82799866 100.19084531 -118.36477029 98.57197585 -119.9375 96.96875 C-120.7625 96.1128125 -121.5875 95.256875 -122.4375 94.375 C-123.15808594 93.64023437 -123.87867188 92.90546875 -124.62109375 92.1484375 C-126 90 -126 90 -126.05859375 87.60546875 C-124.6127438 84.04686389 -122.27203186 81.63689163 -119.625 78.9375 C-118.52438742 77.78158522 -117.42413464 76.62532774 -116.32421875 75.46875 C-115.48769775 74.59863281 -115.48769775 74.59863281 -114.63427734 73.7109375 C-112.19455821 71.15677681 -109.81589029 68.54863401 -107.4375 65.9375 C-106.53282529 64.94896865 -105.62787707 63.96068753 -104.72265625 62.97265625 C-104.2755127 62.4842627 -103.82836914 61.99586914 -103.36767578 61.49267578 C-101.97420848 59.97185124 -100.57912249 58.45252676 -99.18359375 56.93359375 C-95.01444685 52.39404893 -90.85543317 47.84747011 -86.75 43.25 C-82.09405927 38.05812365 -77.33020754 32.96788389 -72.51757812 27.92114258 C-69.68645904 24.93998558 -66.91786078 21.98499097 -64.421875 18.71484375 C-59.41941697 12.31781558 -59.41941697 12.31781558 -55.6796875 11.48046875 C-52.6447127 11.65217222 -49.95395909 12.26492916 -47 13 C-45.41790857 13.33789927 -43.83444856 13.6694258 -42.25 13.99609375 C-39.70739949 14.52035631 -37.16930195 15.05247446 -34.63720703 15.62548828 C-27.69277853 17.47793374 -27.69277853 17.47793374 -20.98046875 15.90625 C-20.38878906 15.4421875 -19.79710937 14.978125 -19.1875 14.5 C-18.28064453 13.80390625 -18.28064453 13.80390625 -17.35546875 13.09375 C-16.90816406 12.7328125 -16.46085937 12.371875 -16 12 C-16.495 9.525 -16.495 9.525 -17 7 C-15.56542672 6.0165504 -14.12722594 5.03839079 -12.6875 4.0625 C-11.48673828 3.24458984 -11.48673828 3.24458984 -10.26171875 2.41015625 C-6.83632179 0.2744597 -3.98189165 -0.64928392 0 0 Z M-58.57421875 22.34375 C-59.61716016 23.39069758 -60.65469176 24.44305479 -61.6875 25.5 C-62.19216797 26.0053125 -62.69683594 26.510625 -63.21679688 27.03125 C-66.69983933 30.55392252 -69.97256028 34.226686 -73.21655273 37.96923828 C-76.12723767 41.28355413 -79.15806626 44.48202943 -82.1875 47.6875 C-83.50950061 49.09208469 -84.83111016 50.49703754 -86.15234375 51.90234375 C-86.80187012 52.59312012 -87.45139648 53.28389648 -88.12060547 53.99560547 C-92.2975616 58.45037422 -96.43253964 62.94387692 -100.56494141 67.43994141 C-102.0451597 69.04909331 -103.52829807 70.65551899 -105.01171875 72.26171875 C-105.98707703 73.32022233 -106.96234103 74.3788128 -107.9375 75.4375 C-108.79214844 76.36433594 -109.64679688 77.29117188 -110.52734375 78.24609375 C-113.09668064 81.10767749 -115.5559562 84.03129564 -118 87 C-113.71659695 99.13101069 -101.01135056 109.48290062 -89.6875 114.9140625 C-77.29138794 121.28249728 -77.29138794 121.28249728 -64 123 C-62.11323863 121.72394218 -62.11323863 121.72394218 -60.546875 119.8515625 C-59.93142822 119.17996094 -59.31598145 118.50835938 -58.68188477 117.81640625 C-58.04436279 117.09324219 -57.40684082 116.37007812 -56.75 115.625 C-56.0912085 114.89925781 -55.43241699 114.17351562 -54.75366211 113.42578125 C-52.82337013 111.29462913 -50.9108944 109.14853719 -49 107 C-48.00800012 105.90229774 -47.01468612 104.80578032 -46.01953125 103.7109375 C-44.00122413 101.48406128 -41.99432013 99.24833922 -40 97 C-41.4630071 92.85481322 -43.11455189 89.34231073 -46 86 C-49.58646778 85.23658774 -49.58646778 85.23658774 -53.5 85.5625 C-54.8096875 85.60503906 -56.119375 85.64757812 -57.46875 85.69140625 C-60.13988297 85.92483491 -62.45443066 86.21425028 -65 87 C-65 85.02 -65 83.04 -65 81 C-45.22944491 79.35603674 -45.22944491 79.35603674 -39.98046875 83.2265625 C-38.27443475 85.77663437 -37.00287365 88.10510699 -36 91 C-32.29703581 89.48705075 -30.2799836 87.3194126 -27.6875 84.3125 C-24.99322412 81.23899708 -22.29804961 78.23206655 -19.375 75.375 C-15.70036779 71.76921336 -12.34303083 67.91205736 -9 64 C-12.02111938 57.26847672 -18.22168272 52.73985398 -23.70703125 48.0078125 C-26.99674253 45.12721352 -30.20671697 42.16120952 -33.4230957 39.19946289 C-36.7170821 36.16874566 -40.03635832 33.16914837 -43.375 30.1875 C-46.1781745 27.68176845 -48.88617212 25.1397182 -51.5 22.4375 C-54.87383752 19.14800842 -55.0969828 19.17782956 -58.57421875 22.34375 Z " fill="#F5F2F1" transform="translate(518,559)"/>
<path d="M0 0 C0.77037598 0.12793945 1.54075195 0.25587891 2.33447266 0.38769531 C7.27267613 1.4363668 12.17720263 2.57755156 17.07421875 3.8046875 C25.19362852 5.80701097 33.292965 7.71664997 41.5078125 9.2890625 C43.88671875 9.9296875 43.88671875 9.9296875 45.88671875 11.9296875 C46.51953125 14.3203125 46.51953125 14.3203125 47.01171875 17.1796875 C47.17929687 18.11296875 47.346875 19.04625 47.51953125 20.0078125 C48.25989193 25.89919322 48.25989193 25.89919322 47.88671875 28.9296875 C45.8671875 31.01953125 45.8671875 31.01953125 43.07421875 32.8671875 C42.05972656 33.55039062 41.04523438 34.23359375 40 34.9375 C38.97261719 35.59492187 37.94523437 36.25234375 36.88671875 36.9296875 C36.03464844 37.48398437 35.18257813 38.03828125 34.3046875 38.609375 C32.56163989 39.72856686 30.8084063 40.83200671 29.046875 41.921875 C26.55377221 43.50587356 24.12358397 45.13343978 21.6953125 46.8125 C20.95361816 47.31612061 20.21192383 47.81974121 19.44775391 48.33862305 C17.98048587 49.33607855 16.52254032 50.34742847 15.07568359 51.37426758 C14.39070801 51.83470459 13.70573242 52.2951416 13 52.76953125 C12.39969971 53.18581787 11.79939941 53.60210449 11.1809082 54.03100586 C4.79618238 56.53203552 -2.59722944 54.47301559 -9.08203125 53.1796875 C-10.46340271 52.91333496 -10.46340271 52.91333496 -11.87268066 52.64160156 C-14.78761386 52.07790829 -17.70041848 51.50397338 -20.61328125 50.9296875 C-22.60012825 50.54359007 -24.58710633 50.15816654 -26.57421875 49.7734375 C-31.42212371 48.83330785 -36.26814783 47.88399351 -41.11328125 46.9296875 C-42.59158333 42.21234144 -43.43114658 37.95753136 -43.73828125 32.9921875 C-43.85042969 31.27708984 -43.85042969 31.27708984 -43.96484375 29.52734375 C-44.01382812 28.67011719 -44.0628125 27.81289063 -44.11328125 26.9296875 C-39.38119977 23.72711372 -34.64893493 20.52481114 -29.91650391 17.32275391 C-28.30838119 16.23461135 -26.70030761 15.14639619 -25.09228516 14.05810547 C-22.77389394 12.48906423 -20.45532309 10.92028877 -18.13671875 9.3515625 C-17.42397797 8.86911072 -16.71123718 8.38665894 -15.97689819 7.8895874 C-14.63765926 6.98362291 -13.2965754 6.08037756 -11.95335388 5.18032837 C-10.76469987 4.37243674 -9.58765041 3.54707611 -8.42567444 2.70126343 C-5.48012978 0.59190412 -3.63930031 -0.62868365 0 0 Z " fill="#F5F1F0" transform="translate(382.11328125,509.0703125)"/>
<path d="M0 0 C3.98387955 1.2997407 7.26388758 3.19253329 10.8125 5.39453125 C12.31166504 6.30606215 13.81169995 7.21616359 15.3125 8.125 C16.09367188 8.5998584 16.87484375 9.0747168 17.6796875 9.56396484 C20.17874481 11.05152272 22.70565585 12.47426743 25.25 13.8828125 C26.51710815 14.59074951 26.51710815 14.59074951 27.80981445 15.31298828 C29.43558869 16.21857514 31.06670367 17.11466313 32.70385742 17.99951172 C40.13342777 22.18237974 44.31706823 26.7948498 47.5 34.70703125 C49.40967146 37.81550528 50.86601099 39.63163378 54.41503906 40.72509766 C58.35853283 41.46118782 62.31558488 41.92558406 66.29907227 42.38793945 C78.48213881 43.9677862 88.45178699 49.19848759 99.125 55.01953125 C100.13997559 55.56512695 101.15495117 56.11072266 102.20068359 56.67285156 C109.97624781 60.87077906 109.97624781 60.87077906 111.125 62.01953125 C110.98761194 81.32255375 105.31375389 95.43980645 93.125 110.01953125 C92.64804687 110.76847656 92.17109375 111.51742187 91.6796875 112.2890625 C90.125 114.01953125 90.125 114.01953125 87.86328125 114.41015625 C87.06277344 114.36375 86.26226563 114.31734375 85.4375 114.26953125 C84.62925781 114.2334375 83.82101562 114.19734375 82.98828125 114.16015625 C82.37339844 114.11375 81.75851562 114.06734375 81.125 114.01953125 C81.90875 113.15328125 82.6925 112.28703125 83.5 111.39453125 C86.62754252 107.73702329 89.48980657 103.9135065 92.3125 100.01953125 C92.74030762 99.43864746 93.16811523 98.85776367 93.60888672 98.25927734 C98.79497183 91.02150953 100.789916 83.74950357 102.3125 75.08203125 C102.48974609 74.11201172 102.66699219 73.14199219 102.84960938 72.14257812 C103.28214749 69.76946363 103.70706947 67.39525398 104.125 65.01953125 C103.28453125 64.76945313 102.4440625 64.519375 101.578125 64.26171875 C97.13341188 62.66282874 93.14706556 60.41863198 89.04296875 58.1171875 C80.7251772 53.55021636 73.49011061 50.84371923 63.96850586 50.16259766 C50.39388056 49.03197954 50.39388056 49.03197954 46.19384766 45.30664062 C44.06613928 42.42954637 42.45307289 39.39790939 40.80908203 36.22680664 C35.17740548 26.01389521 25.24037578 21.74082295 15.15625 16.62744141 C10.8711388 14.35442736 6.79897649 11.75395248 2.71875 9.13354492 C0.23591747 7.7361188 0.23591747 7.7361188 -1.9909668 8.66796875 C-2.61269775 9.11398437 -3.23442871 9.56 -3.875 10.01953125 C-4.4728833 10.43178955 -5.0707666 10.84404785 -5.68676758 11.26879883 C-6.5939856 11.95945435 -6.5939856 11.95945435 -7.51953125 12.6640625 C-8.19693359 13.17646484 -8.87433594 13.68886719 -9.57226562 14.21679688 C-10.27029297 14.74982422 -10.96832031 15.28285156 -11.6875 15.83203125 C-13.0684076 16.88100238 -14.44991339 17.92918652 -15.83203125 18.9765625 C-16.50500244 19.50113037 -17.17797363 20.02569824 -17.87133789 20.56616211 C-19.875 22.01953125 -19.875 22.01953125 -21.86108398 23.05297852 C-25.18154148 24.86315364 -26.58739825 26.14772652 -27.7956543 29.81030273 C-28.46831428 33.3136436 -28.92521247 36.78598887 -29.3125 40.33203125 C-29.47169922 41.53021484 -29.63089844 42.72839844 -29.79492188 43.96289062 C-30.56557365 50.01801172 -31.06449477 55.91779963 -30.875 62.01953125 C-30.30168945 62.34638916 -29.72837891 62.67324707 -29.13769531 63.01000977 C1.70492999 80.59946124 1.70492999 80.59946124 3.125 82.01953125 C4.6118258 81.95754878 6.09646307 81.84158336 7.578125 81.703125 C22.3286046 80.88501172 22.3286046 80.88501172 27.39013672 84.74853516 C32.57379338 90.41516501 36.0895218 97.1431813 39.63671875 103.8984375 C41.4996249 106.55344548 43.41396582 107.66498934 46.25 109.20703125 C51.03209291 111.83371706 51.03209291 111.83371706 52.125 114.01953125 C50.25206739 114.15590984 48.37619131 114.25214476 46.5 114.33203125 C45.45585938 114.39003906 44.41171875 114.44804688 43.3359375 114.5078125 C39.13155845 113.86846045 36.81251242 112.18139006 34.125 109.01953125 C32.65764755 106.68272398 31.3316253 104.28949212 29.99511719 101.87573242 C25.84291544 94.14980178 25.84291544 94.14980178 18.97558594 89.26904297 C15.72402218 88.95005601 12.59942016 89.15862932 9.34643555 89.37597656 C-2.37778846 89.79052994 -11.44425923 82.80147095 -21.03320312 76.76416016 C-23.579744 75.20079408 -26.14350647 73.77752407 -28.796875 72.40625 C-29.8645813 71.83777344 -29.8645813 71.83777344 -30.95385742 71.2578125 C-32.78788633 70.28628506 -34.62994297 69.32995307 -36.47265625 68.375 C-39.10542351 65.7936038 -39.25250824 65.47330046 -39.33203125 62.0078125 C-39.2177895 60.34200049 -39.06194848 58.6787573 -38.875 57.01953125 C-38.78516846 56.08520264 -38.69533691 55.15087402 -38.6027832 54.18823242 C-38.28041353 51.12484249 -37.89807049 48.07395675 -37.5 45.01953125 C-37.37367188 43.99085938 -37.24734375 42.9621875 -37.1171875 41.90234375 C-35.045416 25.61821977 -35.045416 25.61821977 -32.31640625 21.890625 C-31.69636719 21.41753906 -31.07632813 20.94445312 -30.4375 20.45703125 C-29.72207031 19.89628906 -29.00664063 19.33554687 -28.26953125 18.7578125 C-27.47933594 18.18417969 -26.68914063 17.61054687 -25.875 17.01953125 C-25.03324219 16.39433594 -24.19148437 15.76914062 -23.32421875 15.125 C-21.49973027 13.78633768 -19.66335194 12.46375397 -17.81640625 11.15625 C-15.72516942 9.6371178 -13.71658715 8.10409092 -11.71484375 6.4765625 C-11.18858398 6.05681152 -10.66232422 5.63706055 -10.12011719 5.20458984 C-8.63760551 4.01718629 -7.16803225 2.81368184 -5.69921875 1.609375 C-2.875 0.01953125 -2.875 0.01953125 0 0 Z " fill="#F5F2F0" transform="translate(639.875,579.98046875)"/>
<path d="M0 0 C1.91674805 1.08154297 1.91674805 1.08154297 3.91674805 3.08154297 C5.03353401 8.6654728 2.33532793 12.32533871 -0.4777832 16.90966797 C-2.08325195 19.08154297 -2.08325195 19.08154297 -5.08325195 21.08154297 C-23.87938579 23.74008088 -43.72956319 22.52369261 -62.65112305 21.4437561 C-64.61230313 21.33342472 -66.5743552 21.2389613 -68.53637695 21.14477539 C-69.72875977 21.06718994 -70.92114258 20.98960449 -72.1496582 20.90966797 C-73.20096924 20.84682617 -74.25228027 20.78398438 -75.33544922 20.71923828 C-78.69659485 19.93920164 -79.95018255 18.74733581 -82.08325195 16.08154297 C-83.20169222 12.56728591 -83.17568516 9.60341717 -82.08325195 6.08154297 C-79.09899469 3.14805756 -75.65506563 1.22352706 -72.08325195 -0.91845703 C-70.39662738 -2.56492388 -68.72813489 -4.2302877 -67.08325195 -5.91845703 C-47.17152192 -22.15599878 -20.17561245 -9.98593041 0 0 Z " fill="#AB363A" transform="translate(622.083251953125,694.91845703125)"/>
<path d="M0 0 C0.90363281 -0.00515625 1.80726563 -0.0103125 2.73828125 -0.015625 C5.6875 0.25 5.6875 0.25 9.015625 1.24609375 C13.1699039 2.38189128 16.85296394 2.48942884 21.125 2.5625 C27.89057468 2.85256687 32.5944129 3.45904518 37.6875 8.25 C38.5640625 9.06984375 39.440625 9.8896875 40.34375 10.734375 C48.58900994 18.74802651 48.58900994 18.74802651 48.9375 24.0625 C48.87462633 27.91875189 48.20540161 30.21115323 45.6875 33.25 C33.98998239 42.10217549 10.74093255 37.37458543 -3.23077393 36.66714478 C-4.65176054 36.59779629 -6.0731459 36.53615696 -7.49481201 36.48251343 C-20.21521819 35.98403679 -20.21521819 35.98403679 -24.24609375 33.04296875 C-26.3125 30.25 -26.3125 30.25 -26.9375 27.40234375 C-26.14044542 23.38219971 -24.45670918 20.24523173 -22.3125 16.8125 C-21.70498901 15.82117065 -21.70498901 15.82117065 -21.08520508 14.80981445 C-16.09528336 6.95017738 -9.85240071 -0.05574201 0 0 Z " fill="#AA373A" transform="translate(365.3125,679.75)"/>
<path d="M0 0 C0.8559375 0.29648437 1.711875 0.59296875 2.59375 0.8984375 C7.69128185 2.54695124 12.9249845 3.43742091 18.1875 4.41210938 C25.82820215 5.92458275 25.82820215 5.92458275 29 9 C25.93885833 11.27835493 22.85473655 13.52193371 19.75048828 15.74121094 C18.5459731 16.60738671 17.3466936 17.48087493 16.15185547 18.36035156 C14.24076326 19.76172126 12.31043684 21.13251047 10.375 22.5 C9.77872803 22.94520996 9.18245605 23.39041992 8.56811523 23.84912109 C1.68207637 28.62466539 -4.52477713 27.32214386 -12.4609375 25.9765625 C-14.76731002 25.53474884 -17.07199683 25.08405326 -19.375 24.625 C-20.54933594 24.40328125 -21.72367187 24.1815625 -22.93359375 23.953125 C-31.61067497 22.25955002 -31.61067497 22.25955002 -35 20 C-34.26362305 19.50072998 -33.52724609 19.00145996 -32.76855469 18.48706055 C-30.02469783 16.62602297 -27.28143869 14.76411089 -24.53857422 12.90161133 C-23.35358971 12.09722585 -22.16837122 11.29318494 -20.98291016 10.48950195 C-19.27444122 9.33115714 -17.56683044 8.17155681 -15.859375 7.01171875 C-14.31975098 5.96697388 -14.31975098 5.96697388 -12.74902344 4.90112305 C-11.06895081 3.73924689 -9.41497002 2.53679683 -7.81347656 1.26879883 C-5.13051608 -0.6083344 -3.20907625 -0.32090763 0 0 Z " fill="#AB393C" transform="translate(385,516)"/>
<path d="M0 0 C3.63046346 1.56194358 6.21193205 3.78965167 9.125 6.4375 C9.99382813 7.21996094 10.86265625 8.00242187 11.7578125 8.80859375 C14 11 14 11 16 14 C15.05125 14.825 14.1025 15.65 13.125 16.5 C8.79648687 21.41922786 8.84103752 27.29564516 8.32421875 33.55078125 C8 37 8 37 7 39 C3.993182 37.66000502 2.00237391 36.20154709 -0.25 33.8125 C-2.62823921 31.36401744 -5.03799459 29.03928947 -7.625 26.8125 C-11.35000335 23.60304292 -14.96015896 20.28286005 -18.5625 16.9375 C-22.96103033 12.85599224 -27.39788157 8.85293636 -32 5 C-28.2019761 3.60121559 -25.46743438 4.42986861 -21.625 5.4375 C-17.30275305 6.56614294 -13.47277498 7.48958753 -9 7 C-6.38881954 5.5291757 -6.38881954 5.5291757 -4.125 3.5 C-3.34382813 2.8503125 -2.56265625 2.200625 -1.7578125 1.53125 C-1.17773438 1.0259375 -0.59765625 0.520625 0 0 Z " fill="#AB373B" transform="translate(506,576)"/>
<path d="M0 0 C1.32 0.66 2.64 1.32 4 2 C3.67 3.98 3.34 5.96 3 8 C2.34 8 1.68 8 1 8 C1 8.66 1 9.32 1 10 C0.34 10 -0.32 10 -1 10 C-1.27585937 10.5878125 -1.55171875 11.175625 -1.8359375 11.78125 C-4.14491854 16.18226083 -6.97330655 19.93722246 -11.82861328 21.64208984 C-14.6386371 22.40566145 -17.44989657 23.0505867 -20.31298828 23.58203125 C-24.81331478 24.45993381 -27.20664236 25.33448048 -30 29 C-37.98799565 41.20348531 -41.42599594 53.75452735 -44 68 C-45.65614657 68.38218767 -47.32457024 68.71395102 -49 69 C-50 68 -50 68 -50.25 64.8125 C-50.10803087 54.92789939 -47.32990097 44.84173055 -43 36 C-42.69239746 35.33468262 -42.38479492 34.66936523 -42.06787109 33.98388672 C-35.29534532 19.63414764 -35.29534532 19.63414764 -29.48046875 17.08984375 C-25.9726988 16.10736931 -22.60402288 15.50182597 -19 15 C-13.45935916 13.84296628 -10.85935205 12.42060061 -7.25 8.0625 C-6.14398438 6.74958984 -6.14398438 6.74958984 -5.015625 5.41015625 C-4.35046875 4.61480469 -3.6853125 3.81945312 -3 3 C-2.01427571 1.98592524 -1.02077652 0.97878255 0 0 Z " fill="#F4EFED" transform="translate(328,593)"/>
<path d="M0 0 C3.77800868 0.53971553 5.71576111 1.95434815 8 5 C7.75 7.75 7.75 7.75 7 10 C7.66 10 8.32 10 9 10 C9 10.66 9 11.32 9 12 C10.2375 11.773125 11.475 11.54625 12.75 11.3125 C15.86853111 10.90333102 16.68127899 10.81673542 19.5 12.4375 C19.995 12.953125 20.49 13.46875 21 14 C20.875 16.25 20.875 16.25 20 19 C18.989375 19.639375 17.97875 20.27875 16.9375 20.9375 C15.4834375 21.9584375 15.4834375 21.9584375 14 23 C13.58253392 26.12635209 13.58253392 26.12635209 14 29 C13 30 13 30 10.4375 30.0625 C9.633125 30.041875 8.82875 30.02125 8 30 C7.67 29.34 7.34 28.68 7 28 C3.88667752 28.66868314 3.88667752 28.66868314 2.8125 31.0625 C2.544375 31.701875 2.27625 32.34125 2 33 C0.35 33 -1.3 33 -3 33 C-4.31157516 30.37684968 -3.89649988 28.76966564 -3.5625 25.875 C-3.46066406 24.96492187 -3.35882813 24.05484375 -3.25390625 23.1171875 C-3.12822266 22.06917969 -3.12822266 22.06917969 -3 21 C-3.94875 21.04125 -4.8975 21.0825 -5.875 21.125 C-9 21 -9 21 -11 19 C-10.80688882 16.1033323 -9.97235629 14.96789763 -8.0625 12.75 C-6 11 -6 11 -4 11 C-4.0825 10.113125 -4.165 9.22625 -4.25 8.3125 C-3.94791837 4.30991841 -2.70272533 2.87164566 0 0 Z " fill="#AE4040" transform="translate(150,569)"/>
<path d="M0 0 C16.76839964 1.09956719 33.00757465 6.41176449 44.75 18.75 C51.14201502 26.50232943 52.44807288 33.7903576 52.3359375 43.703125 C51.99372805 47.06155258 51.19254971 49.85166877 50 53 C47.03 52.505 47.03 52.505 44 52 C44.03480469 50.7934375 44.06960938 49.586875 44.10546875 48.34375 C44.13362984 46.72918072 44.16092749 45.11459621 44.1875 43.5 C44.21263672 42.70851563 44.23777344 41.91703125 44.26367188 41.1015625 C44.3548818 33.68315494 42.79782845 27.11559962 37.62890625 21.4375 C27.89332842 12.84591093 15.52531364 9.85716073 3.08984375 7.7109375 C0 7 0 7 -2 5 C-1.46428571 1.46428571 -1.46428571 1.46428571 0 0 Z " fill="#F5F0EF" transform="translate(604,495)"/>
<path d="M0 0 C2.80810898 1.18804611 4.34037524 2.34037524 6.5390625 4.5390625 C10.58497217 7.94890433 14.65363043 7.69747891 19.75 7.6875 C21.54309964 7.73198375 23.3360842 7.78140112 25.12890625 7.8359375 C26.40145264 7.87025879 26.40145264 7.87025879 27.69970703 7.90527344 C39.80753862 8.40387656 50.83172974 13.37055066 59.08984375 22.24609375 C62.73562299 26.64268694 62.73562299 26.64268694 64 29 C63.68359375 31.2734375 63.68359375 31.2734375 63 33 C60.7578125 33.2890625 60.7578125 33.2890625 58 33 C55.9296875 31.0234375 55.9296875 31.0234375 53.875 28.375 C47.99017904 21.44879169 41.13998857 16.99095608 32 16 C27.13922642 15.80377068 22.27456143 15.7043258 17.41015625 15.65820312 C11.27785298 15.48675381 7.70258162 15.02439632 3 11 C2.030625 10.195625 1.06125 9.39125 0.0625 8.5625 C-2 6 -2 6 -1.875 3.25 C-1 1 -1 1 0 0 Z " fill="#F5F0EF" transform="translate(521,440)"/>
<path d="M0 0 C0.71115967 0.00563965 1.42231934 0.0112793 2.1550293 0.01708984 C7.95372316 0.15012064 12.9603619 0.98201603 18.3125 3.3125 C19.21484375 3.70308594 20.1171875 4.09367188 21.046875 4.49609375 C30.30015645 9.0077075 37.14732963 15.84737599 41.3125 25.3125 C41.5 28.1875 41.5 28.1875 41.3125 30.3125 C39.6625 30.6425 38.0125 30.9725 36.3125 31.3125 C35.9 30.59964844 35.4875 29.88679687 35.0625 29.15234375 C28.80221288 18.76976935 22.00392526 12.02399985 10.1484375 8.70703125 C5.12493426 8.00816923 0.05860268 8.31529079 -5.00195312 8.43945312 C-5.83017578 8.45041016 -6.65839844 8.46136719 -7.51171875 8.47265625 C-8.64226685 8.49791382 -8.64226685 8.49791382 -9.7956543 8.52368164 C-11.6875 8.3125 -11.6875 8.3125 -13.6875 6.3125 C-13.625 4.3125 -13.625 4.3125 -12.6875 2.3125 C-8.56692711 0.12054111 -4.57110269 -0.03779109 0 0 Z " fill="#F5F0EF" transform="translate(565.6875,531.6875)"/>
<path d="M0 0 C4.08745311 3.31651 7.88667936 7.11294603 10 12 C9.6875 14.3125 9.6875 14.3125 9 16 C7.68 16.33 6.36 16.66 5 17 C4.5153125 16.32453125 4.030625 15.6490625 3.53125 14.953125 C-1.70888481 7.97971483 -5.70544562 4.76485146 -14 2 C-22.0589158 1.32750497 -28.14028053 1.63906465 -35 6 C-36.32719189 6.67881066 -37.65912535 7.3486342 -39 8 C-39.66 7.34 -40.32 6.68 -41 6 C-40.92578125 3.578125 -40.92578125 3.578125 -40 1 C-37.85546875 -0.765625 -37.85546875 -0.765625 -35.1875 -2.25 C-33.87845703 -3.00023437 -33.87845703 -3.00023437 -32.54296875 -3.765625 C-21.67213752 -9.04240329 -9.65684504 -6.53341445 0 0 Z " fill="#F3EEED" transform="translate(499,496)"/>
<path d="M0 0 C1.32 0.66 2.64 1.32 4 2 C3.56331946 7.0946063 -0.83295147 9.97391092 -4.34375 13.2265625 C-11.38018088 19.94948904 -14.79704727 27.34047913 -17.8125 36.5 C-18.12380859 37.4178125 -18.43511719 38.335625 -18.75585938 39.28125 C-19.51307019 41.51793427 -20.26086711 43.75729075 -21 46 C-22.98 46 -24.96 46 -27 46 C-25.27941103 30.45175092 -19.7034607 17.41608002 -8 7 C-7.18015625 6.24847656 -6.3603125 5.49695313 -5.515625 4.72265625 C-3.70794314 3.10407586 -1.88165498 1.53120348 0 0 Z " fill="#F3F0ED" transform="translate(735,648)"/>
<path d="M0 0 C2 2 2 2 2.375 4.9375 C2 8 2 8 0.1875 9.875 C-2 11 -2 11 -5 11 C-4.814375 12.134375 -4.62875 13.26875 -4.4375 14.4375 C-4.293125 15.613125 -4.14875 16.78875 -4 18 C-5 19 -5 19 -7.5625 19.0625 C-8.366875 19.041875 -9.17125 19.02125 -10 19 C-10.33 18.01 -10.66 17.02 -11 16 C-14.0109362 18.0072908 -14.63016497 18.83884224 -16 22 C-20.875 21.125 -20.875 21.125 -22 20 C-22.375 17.25 -22.375 17.25 -22 14 C-19.875 11.5625 -19.875 11.5625 -17 9 C-15.4429662 7.20941113 -13.93464607 5.38520373 -12.4296875 3.55078125 C-8.48593413 -0.72700588 -5.42771053 -0.34461654 0 0 Z " fill="#AC3C3C" transform="translate(362,343)"/>
<path d="M0 0 C4.78012938 0.69388975 6.49373688 2.34400579 9.875 5.6328125 C11.77869871 7.4695843 13.75819459 8.98343145 15.875 10.5625 C18.7288418 12.97529352 18.84308922 13.32316915 19.375 17.3125 C18.875 20.5625 18.875 20.5625 17.875 22.5625 C16.225 22.5625 14.575 22.5625 12.875 22.5625 C12.38 20.0875 12.38 20.0875 11.875 17.5625 C10.555 17.2325 9.235 16.9025 7.875 16.5625 C7.545 17.5525 7.215 18.5425 6.875 19.5625 C5.20888095 19.605221 3.54117115 19.60313832 1.875 19.5625 C1.545 19.2325 1.215 18.9025 0.875 18.5625 C1.16230055 16.22305264 1.49436779 13.8885857 1.875 11.5625 C0.9778125 11.4078125 0.9778125 11.4078125 0.0625 11.25 C-2.51494819 10.43994486 -3.55563575 9.75960995 -5.125 7.5625 C-5.4375 5 -5.4375 5 -5.125 2.5625 C-3.125 0.5625 -3.125 0.5625 0 0 Z " fill="#AB3E3F" transform="translate(596.125,317.4375)"/>
<path d="M0 0 C0.66 0.66 1.32 1.32 2 2 C1.625 5.625 1.625 5.625 1 9 C-0.98 9.66 -2.96 10.32 -5 11 C-4.79375 11.94875 -4.5875 12.8975 -4.375 13.875 C-4.25125 14.90625 -4.1275 15.9375 -4 17 C-4.66 17.66 -5.32 18.32 -6 19 C-8.625 18.625 -8.625 18.625 -11 18 C-11 17.34 -11 16.68 -11 16 C-11.99 16 -12.98 16 -14 16 C-14.33 17.65 -14.66 19.3 -15 21 C-17.375 21.625 -17.375 21.625 -20 22 C-22 20 -22 20 -22.5234375 16.7734375 C-21.80515539 11.59537396 -19.51254045 9.86461704 -15.625 6.625 C-14.72007812 5.82642578 -14.72007812 5.82642578 -13.796875 5.01171875 C-8.84970631 0.69119143 -6.60593934 -0.35388961 0 0 Z " fill="#AD3D3E" transform="translate(267,445)"/>
<path d="M0 0 C6.37372746 0.10467801 10.33668636 5.41089892 14.5 9.6875 C15.25152344 10.36941406 16.00304687 11.05132813 16.77734375 11.75390625 C18.5 13.6875 18.5 13.6875 18.8125 17.375 C18.5 20.6875 18.5 20.6875 17.5 21.6875 C15.83382885 21.72813832 14.16611905 21.730221 12.5 21.6875 C12.005 19.2125 12.005 19.2125 11.5 16.6875 C10.4171875 17.4609375 10.4171875 17.4609375 9.3125 18.25 C6.0804634 19.90192982 4.88391693 19.75101675 1.5 18.6875 C1.5 16.0475 1.5 13.4075 1.5 10.6875 C0.71625 10.56375 -0.0675 10.44 -0.875 10.3125 C-3.5 9.6875 -3.5 9.6875 -5.5 7.6875 C-5.75 5.1875 -5.75 5.1875 -5.5 2.6875 C-3.5 0.6875 -3.5 0.6875 0 0 Z " fill="#AC3B3C" transform="translate(801.5,515.3125)"/>
<path d="M0 0 C2.8515625 1.828125 2.8515625 1.828125 5.625 4.25 C7.00558594 5.43335938 7.00558594 5.43335938 8.4140625 6.640625 C9.26742187 7.41921875 10.12078125 8.1978125 11 9 C11.76570312 9.6703125 12.53140625 10.340625 13.3203125 11.03125 C16.08606033 14.27296374 15.27474989 16.87875164 15 21 C12.625 21.625 12.625 21.625 10 22 C9.34 21.34 8.68 20.68 8 20 C8 18.68 8 17.36 8 16 C4.88214887 16.64644661 4.88214887 16.64644661 4 19 C2.33388095 19.042721 0.66617115 19.04063832 -1 19 C-2 18 -2 18 -2.0625 14.4375 C-2.041875 13.303125 -2.02125 12.16875 -2 11 C-2.8971875 10.8453125 -2.8971875 10.8453125 -3.8125 10.6875 C-6.42222519 9.86730065 -7.49452387 9.29783199 -9 7 C-8.8125 3.875 -8.8125 3.875 -8 1 C-5.129895 -0.4350525 -3.1884062 -0.3242447 0 0 Z " fill="#AB3F40" transform="translate(715,383)"/>
<path d="M0 0 C3.77800868 0.53971553 5.71576111 1.95434815 8 5 C7.75 7.75 7.75 7.75 7 10 C7.66 10 8.32 10 9 10 C9.33 10.99 9.66 11.98 10 13 C9.01 13.33 8.02 13.66 7 14 C6.69320312 14.61359375 6.38640625 15.2271875 6.0703125 15.859375 C4.755578 18.48884401 3.25776287 19.559007 0.875 21.25 C0.15054688 21.77078125 -0.57390625 22.2915625 -1.3203125 22.828125 C-1.87460938 23.21484375 -2.42890625 23.6015625 -3 24 C-3 23.01 -3 22.02 -3 21 C-3.94875 21.04125 -4.8975 21.0825 -5.875 21.125 C-9 21 -9 21 -11 19 C-10.80688882 16.1033323 -9.97235629 14.96789763 -8.0625 12.75 C-6 11 -6 11 -4 11 C-4.0825 10.113125 -4.165 9.22625 -4.25 8.3125 C-3.94791837 4.30991841 -2.70272533 2.87164566 0 0 Z " fill="#EFEDEC" transform="translate(150,569)"/>
<path d="M0 0 C5.24050933 0.61190056 10.38109896 1.39546521 15.5625 2.41015625 C16.23925781 2.54191757 16.91601562 2.67367889 17.61328125 2.80943298 C19.74268782 3.22460873 21.87134631 3.64348319 24 4.0625 C25.45698307 4.34725186 26.91401394 4.6317592 28.37109375 4.91601562 C31.91461866 5.60785624 35.45748342 6.30301241 39 7 C39 8.98 39 10.96 39 13 C30.40586279 12.48788893 22.16844676 11.21163547 13.75 9.4375 C12.61175781 9.20353516 11.47351563 8.96957031 10.30078125 8.72851562 C7.53249858 8.15857508 4.76569661 7.58233635 2 7 C1.34 4.69 0.68 2.38 0 0 Z " fill="#B03F42" transform="translate(345,543)"/>
<path d="M0 0 C0.66 0.33 1.32 0.66 2 1 C2.515625 3.6328125 2.515625 3.6328125 2 7 C-0.43654923 9.43177168 -3.3152268 11.10083862 -6.25 12.875 C-7.90118013 13.91905189 -9.55222136 14.96332347 -11.203125 16.0078125 C-12.42612305 16.76626465 -12.42612305 16.76626465 -13.67382812 17.54003906 C-16.84171645 19.52828132 -19.91498518 21.63563619 -23 23.75 C-27.75609756 27 -27.75609756 27 -30 27 C-30.33 25.02 -30.66 23.04 -31 21 C-24.00473102 15.68937149 -16.76867073 10.76928893 -9.4375 5.9375 C-8.54450195 5.34106689 -7.65150391 4.74463379 -6.73144531 4.13012695 C-5.47025879 3.30581177 -5.47025879 3.30581177 -4.18359375 2.46484375 C-3.42618896 1.965896 -2.66878418 1.46694824 -1.88842773 0.95288086 C-1.26524658 0.63843018 -0.64206543 0.32397949 0 0 Z " fill="#B04546" transform="translate(421,528)"/>
<path d="M0 0 C1.6902327 0.95963076 3.36582708 1.94773736 5 3 C4.67 4.32 4.34 5.64 4 7 C0.10609235 8.07862599 -1.61055433 7.98831248 -5.125 6.0625 C-12.91797932 2.60555338 -21.66440752 3.69190829 -30 4 C-30.33 2.35 -30.66 0.7 -31 -1 C-20.6835172 -6.50212416 -10.49232352 -4.16074898 0 0 Z " fill="#F5EFEF" transform="translate(547,472)"/>
<path d="M0 0 C5.70387259 4.27790444 9.61335068 8.75407759 11 16 C11.06548492 17.58211573 11.08578381 19.16670081 11.0625 20.75 C11.05347656 21.54921875 11.04445313 22.3484375 11.03515625 23.171875 C11.02355469 23.77515625 11.01195312 24.3784375 11 25 C9.34385343 25.38218767 7.67542976 25.71395102 6 26 C4.44552931 24.44552931 4.6210829 22.65012604 4.3125 20.5 C3.37147855 15.36849241 1.34488984 12.07009437 -1.85546875 8.0078125 C-3 6 -3 6 -2.80078125 3.8671875 C-2 2 -2 2 0 0 Z " fill="#F5F3F2" transform="translate(724,574)"/>
<path d="M0 0 C3.79319535 1.55932742 6.11373748 3.94246388 8.9375 6.875 C12.13496809 10.18613388 15.34963575 13.1920275 19 16 C18.67 17.65 18.34 19.3 18 21 C14 21 14 21 12.43188477 19.88598633 C11.94002686 19.37318115 11.44816895 18.86037598 10.94140625 18.33203125 C10.39033203 17.76806641 9.83925781 17.20410156 9.27148438 16.62304688 C8.70751953 16.02556641 8.14355469 15.42808594 7.5625 14.8125 C7.00240234 14.23435547 6.44230469 13.65621094 5.86523438 13.06054688 C4.76193418 11.92119954 3.66238571 10.77820542 2.56689453 9.63134766 C0.41103406 7.38680735 -1.79116652 5.19231884 -4 3 C-2.68 2.01 -1.36 1.02 0 0 Z " fill="#AC3E42" transform="translate(513,565)"/>
<path d="M0 0 C0.33 0.66 0.66 1.32 1 2 C7.435 1.505 7.435 1.505 14 1 C14 7.27 14 13.54 14 20 C10.09437685 18.69812562 9.308049 16.92403349 7 13.5625 C4.03486238 9.25342199 4.03486238 9.25342199 0 6 C-0.1875 2.875 -0.1875 2.875 0 0 Z " fill="#EFEEEE" transform="translate(717,494)"/>
<path d="M0 0 C6.39205856 0.72362927 12.68027076 1.80343362 19 3 C18.360625 3.103125 17.72125 3.20625 17.0625 3.3125 C16.381875 3.539375 15.70125 3.76625 15 4 C14.67 4.99 14.34 5.98 14 7 C12.58566794 7.2236337 11.16832382 7.42826476 9.75 7.625 C8.96109375 7.74101563 8.1721875 7.85703125 7.359375 7.9765625 C4.61774001 8.00379728 3.24308801 7.56215058 1 6 C0.25 2.875 0.25 2.875 0 0 Z " fill="#B64A47" transform="translate(345,543)"/>
<path d="M0 0 C0.721875 0.103125 1.44375 0.20625 2.1875 0.3125 C2.5175 1.9625 2.8475 3.6125 3.1875 5.3125 C-0.68814767 8.92389896 -0.68814767 8.92389896 -2.8125 10.3125 C-5.1875 10.125 -5.1875 10.125 -6.8125 9.3125 C-7.625 7.625 -7.625 7.625 -7.8125 5.3125 C-5.38938332 2.17670194 -4.02309723 0.4470108 0 0 Z " fill="#AC4646" transform="translate(146.8125,579.6875)"/>
<path d="M0 0 C0.3125 2.25 0.3125 2.25 0 5 C-2.1875 7.375 -2.1875 7.375 -5 9 C-7.8125 8.75 -7.8125 8.75 -10 8 C-9.51760563 2.57306338 -9.51760563 2.57306338 -7.25 0.0625 C-4.41184751 -1.27773867 -2.94905709 -0.90110078 0 0 Z " fill="#AB4442" transform="translate(343,343)"/>
<path d="M0 0 C3.11259604 0.345844 4.82872813 0.87379967 7.375 2.75 C9 5 9 5 8.75 7.75 C8.5025 8.4925 8.255 9.235 8 10 C3.59885603 9.49701212 1.28804981 7.91227269 -2 5 C-1.34 3.35 -0.68 1.7 0 0 Z " fill="#AF4345" transform="translate(613,317)"/>
<path d="M0 0 C5.4 0.6 5.4 0.6 7.875 2.25 C9.37422891 4.58213386 9.22023906 6.28371825 9 9 C7.375 9.8125 7.375 9.8125 5 10 C2.75390165 8.53181864 0.97621323 6.84147142 -1 5 C-0.67 3.35 -0.34 1.7 0 0 Z " fill="#AF4346" transform="translate(818,515)"/>
<path d="M0 0 C1.98 0.66 3.96 1.32 6 2 C5.67 5.3 5.34 8.6 5 12 C3.68 12.33 2.36 12.66 1 13 C-0.7074998 14.28062485 -2.38263741 15.6072711 -4 17 C-4.66 16.67 -5.32 16.34 -6 16 C-5.55527344 15.62488281 -5.11054687 15.24976563 -4.65234375 14.86328125 C-2.93874178 13.31362298 -1.39915111 11.8409883 0 10 C-0.14025199 7.29294488 -0.14025199 7.29294488 -1 5 C-0.34 4.34 0.32 3.68 1 3 C0.67 2.01 0.34 1.02 0 0 Z " fill="#B24649" transform="translate(738,643)"/>
<path d="M0 0 C6.09411765 2.14117647 6.09411765 2.14117647 8 5 C7.6875 7.6875 7.6875 7.6875 7 10 C2.59885603 9.49701212 0.28804981 7.91227269 -3 5 C-1.125 1.125 -1.125 1.125 0 0 Z " fill="#A5393B" transform="translate(729,382)"/>
<path d="M0 0 C0.9075 0.103125 1.815 0.20625 2.75 0.3125 C3.5625 2 3.5625 2 3.75 4.3125 C1.625 7.125 1.625 7.125 -1.25 9.3125 C-4.0625 9.125 -4.0625 9.125 -6.25 8.3125 C-6.58 7.3225 -6.91 6.3325 -7.25 5.3125 C-5.14532708 1.69246258 -4.25783369 0.40940709 0 0 Z " fill="#AA4342" transform="translate(815.25,504.6875)"/>
<path d="M0 0 C0.3125 2.25 0.3125 2.25 0 5 C-2.1875 7.375 -2.1875 7.375 -5 9 C-7.8125 8.75 -7.8125 8.75 -10 8 C-9.64505955 5.37344067 -9.27538036 3.42031739 -7.8125 1.1875 C-5.20638339 -0.51995571 -3.0400645 -0.20267097 0 0 Z " fill="#A9393B" transform="translate(248,445)"/>
<path d="M0 0 C0.763125 0.20625 1.52625 0.4125 2.3125 0.625 C2.6425 1.945 2.9725 3.265 3.3125 4.625 C0.3425 7.1 0.3425 7.1 -2.6875 9.625 C-4.0075 8.965 -5.3275 8.305 -6.6875 7.625 C-6.375 4.75 -6.375 4.75 -5.6875 1.625 C-2.6875 -0.375 -2.6875 -0.375 0 0 Z " fill="#AE4C49" transform="translate(725.6875,372.375)"/>
<path d="M0 0 C0.25 2.3125 0.25 2.3125 0 5 C-1.625 6.875 -1.625 6.875 -4 8 C-7.25 7.6875 -7.25 7.6875 -10 7 C-9.67226629 3.96846314 -9.35865103 2.38426897 -7.25 0.125 C-4.40525065 -1.29737468 -2.98383376 -0.91172698 0 0 Z " fill="#AE4848" transform="translate(613,308)"/>
<path d="M0 0 C2.79394497 0.28902879 4.07919192 1.06206934 6.3125 2.8125 C8 5 8 5 7.75 7.25 C7.5025 7.8275 7.255 8.405 7 9 C2.72290301 9 1.44069624 8.29379749 -2 6 C-1.125 1.125 -1.125 1.125 0 0 Z " fill="#B24C4A" transform="translate(150,569)"/>
<path d="M0 0 C2.72493577 0.28683534 4.58434978 0.72289985 6.875 2.25 C8 4 8 4 7.6875 6.6875 C7.460625 7.450625 7.23375 8.21375 7 9 C3.17902761 8.46930939 0.93828597 7.50298434 -2 5 C-1.125 1.125 -1.125 1.125 0 0 Z " fill="#A53436" transform="translate(248,434)"/>
<path d="M0 0 C5.5952381 0.5952381 5.5952381 0.5952381 8 3 C8.125 5.625 8.125 5.625 8 8 C4.98731243 8.92054342 3.57270838 9.27861489 0.6875 7.875 C-1 6 -1 6 -1.3125 3.375 C-1 1 -1 1 0 0 Z " fill="#AA4443" transform="translate(343,332)"/>
<path d="M0 0 C2.00720923 0.28674418 4.0085944 0.61866701 6 1 C6.625 3.3125 6.625 3.3125 7 6 C6.01 7.485 6.01 7.485 5 9 C0.25 8.25 0.25 8.25 -2 6 C-1.44444444 1.44444444 -1.44444444 1.44444444 0 0 Z " fill="#AC4C4B" transform="translate(586,308)"/>
<path d="M0 0 C2.9375 0.1875 2.9375 0.1875 3.9375 1.1875 C4.125 3.625 4.125 3.625 3.9375 6.1875 C3.2775 6.8475 2.6175 7.5075 1.9375 8.1875 C-1.1875 7.8125 -1.1875 7.8125 -4.0625 7.1875 C-4.6875 4.8125 -4.6875 4.8125 -5.0625 2.1875 C-3.0625 0.1875 -3.0625 0.1875 0 0 Z " fill="#B04C4D" transform="translate(367.0625,333.8125)"/>
<path d="M0 0 C2.5625 0.1875 2.5625 0.1875 4.5625 2.1875 C4.00694444 6.74305556 4.00694444 6.74305556 2.5625 8.1875 C0.125 8.375 0.125 8.375 -2.4375 8.1875 C-3.0975 7.5275 -3.7575 6.8675 -4.4375 6.1875 C-3.71780303 0.28598485 -3.71780303 0.28598485 0 0 Z " fill="#AD4346" transform="translate(703.4375,373.8125)"/>
<path d="M0 0 C4.55555556 0.55555556 4.55555556 0.55555556 6 2 C6.04063832 3.66617115 6.042721 5.33388095 6 7 C3.6739143 7.38063221 1.33944736 7.71269945 -1 8 C-2 7 -2 7 -2.1875 4.5625 C-2 2 -2 2 0 0 Z " fill="#AC3C3E" transform="translate(171,571)"/>
<path d="M0 0 C2.5 0.125 2.5 0.125 3.5 1.125 C3.54080783 3.12458364 3.54254356 5.12545254 3.5 7.125 C1.1875 7.75 1.1875 7.75 -1.5 8.125 C-2.49 7.465 -3.48 6.805 -4.5 6.125 C-3.43143596 0.1715718 -3.43143596 0.1715718 0 0 Z " fill="#B14747" transform="translate(271.5,435.875)"/>
<path d="M0 0 C4.70588235 0.70588235 4.70588235 0.70588235 6 2 C6.125 4.5 6.125 4.5 6 7 C5 8 5 8 2.5625 8.1875 C0 8 0 8 -2 6 C-1.44444444 1.44444444 -1.44444444 1.44444444 0 0 Z " fill="#AE4443" transform="translate(791,506)"/>
<path d="M0 0 C0.66 0 1.32 0 2 0 C3.38232443 1.62626404 4.71937515 3.2925002 6 5 C4.35 6.65 2.7 8.3 1 10 C-0.32 9.34 -1.64 8.68 -3 8 C-3 7.01 -3 6.02 -3 5 C-2.34 4.67 -1.68 4.34 -1 4 C-0.34786708 1.97536745 -0.34786708 1.97536745 0 0 Z " fill="#EBE4E3" transform="translate(343,344)"/>
<path d="M0 0 C0.66 0.99 1.32 1.98 2 3 C2.99 3.33 3.98 3.66 5 4 C2.42215154 6.64752004 0.08351902 8.94432065 -3 11 C-3 10.01 -3 9.02 -3 8 C-3.99 7.67 -4.98 7.34 -6 7 C-5.195625 6.401875 -4.39125 5.80375 -3.5625 5.1875 C-0.77672016 3.19052724 -0.77672016 3.19052724 0 0 Z " fill="#EAE4E1" transform="translate(150,582)"/>
<path d="M0 0 C1.32 0.66 2.64 1.32 4 2 C3.34 2.66 2.68 3.32 2 4 C1.01 4 0.02 4 -1 4 C-3.35666976 5.99157649 -3.35666976 5.99157649 -5.6875 8.5 C-6.49574219 9.3353125 -7.30398438 10.170625 -8.13671875 11.03125 C-8.75160156 11.6809375 -9.36648438 12.330625 -10 13 C-10.66 12.67 -11.32 12.34 -12 12 C-8.04 8.04 -4.08 4.08 0 0 Z " fill="#B95758" transform="translate(462,579)"/>
<path d="M0 0 C1.4540625 0.0309375 1.4540625 0.0309375 2.9375 0.0625 C2.9375 0.7225 2.9375 1.3825 2.9375 2.0625 C-2.68232935 4.56020193 -7.0738269 3.98383432 -13.0625 3.0625 C-13.0625 2.7325 -13.0625 2.4025 -13.0625 2.0625 C-12.10537109 1.97162109 -12.10537109 1.97162109 -11.12890625 1.87890625 C-9.88947266 1.75322266 -9.88947266 1.75322266 -8.625 1.625 C-7.80128906 1.54378906 -6.97757813 1.46257813 -6.12890625 1.37890625 C-3.13269668 0.92012936 -3.40485874 0.06948691 0 0 Z " fill="#EADCDA" transform="translate(812.0625,512.9375)"/>
<path d="M0 0 C2.31 0.33 4.62 0.66 7 1 C6.67 1.99 6.34 2.98 6 4 C3.03 4 0.06 4 -3 4 C-2.01 2.68 -1.02 1.36 0 0 Z " fill="#E8DCD8" transform="translate(724,690)"/>
<path d="M0 0 C0.66 0.33 1.32 0.66 2 1 C2.10814997 4.16338666 2.00258484 6.98185601 1 10 C-1.45237931 11.97538375 -4.02049588 13.02945538 -7 14 C-7 13.01 -7 12.02 -7 11 C-5.02 10.01 -3.04 9.02 -1 8 C-1.020625 6.865625 -1.04125 5.73125 -1.0625 4.5625 C-1 1 -1 1 0 0 Z " fill="#ECE1E0" transform="translate(364,343)"/>
<path d="M0 0 C1.32 0.66 2.64 1.32 4 2 C3.34 3.65 2.68 5.3 2 7 C0.02 5.68 -1.96 4.36 -4 3 C-3.01 2.67 -2.02 2.34 -1 2 C-0.67 1.34 -0.34 0.68 0 0 Z " fill="#E9E2E2" transform="translate(727,388)"/>
<path d="M0 0 C0 3 0 3 -2.5 5.6875 C-3.325 6.450625 -4.15 7.21375 -5 8 C-5.99 7.67 -6.98 7.34 -8 7 C-5.36 4.69 -2.72 2.38 0 0 Z " fill="#B14349" transform="translate(355,683)"/>
<path d="M0 0 C3.3 0.33 6.6 0.66 10 1 C8.35 2.32 6.7 3.64 5 5 C3.35 3.35 1.7 1.7 0 0 Z " fill="#BB5052" transform="translate(474,580)"/>
<path d="M0 0 C0.66 0 1.32 0 2 0 C1.67 1.32 1.34 2.64 1 4 C-1.375 4.625 -1.375 4.625 -4 5 C-4.66 4.34 -5.32 3.68 -6 3 C-5.34 3 -4.68 3 -4 3 C-3.67 2.34 -3.34 1.68 -3 1 C-2.34 1 -1.68 1 -1 1 C-0.67 0.67 -0.34 0.34 0 0 Z " fill="#ECDEDE" transform="translate(550,475)"/>
<path d="M0 0 C0.79921875 0.01804687 1.5984375 0.03609375 2.421875 0.0546875 C3.02515625 0.07789063 3.6284375 0.10109375 4.25 0.125 C3.25 2.125 3.25 2.125 0 3.375 C-3.91664642 4.15832928 -5.32182255 3.99491497 -8.75 2.125 C-5.68753253 0.34090198 -3.52920727 -0.10380021 0 0 Z " fill="#E5DDDC" transform="translate(172.75,577.875)"/>
<path d="M0 0 C2.0625 0.4375 2.0625 0.4375 4 1 C3.2884375 1.928125 3.2884375 1.928125 2.5625 2.875 C0.97582559 4.90705546 0.97582559 4.90705546 0 7 C-0.66 6.34 -1.32 5.68 -2 5 C-1.46428571 1.46428571 -1.46428571 1.46428571 0 0 Z " fill="#B35757" transform="translate(248,434)"/>
<path d="M0 0 C2.97 0 5.94 0 9 0 C7.515 1.485 7.515 1.485 6 3 C2.3125 2.6875 2.3125 2.6875 -1 2 C-0.67 1.34 -0.34 0.68 0 0 Z " fill="#F1F0EE" transform="translate(595,423)"/>
<path d="M0 0 C0.33 1.32 0.66 2.64 1 4 C-1.64 3.67 -4.28 3.34 -7 3 C-4.38058783 1.25372522 -2.96175123 0.61277612 0 0 Z " fill="#EDE2E0" transform="translate(690,481)"/>
</svg>
